<svg xmlns="http://www.w3.org/2000/svg" xmlns:svg="http://www.w3.org/2000/svg" id="svg2" width="210mm" height="297mm" version="1.1" viewBox="0 0 744.094 1052.362"><metadata id="metadata7"/><g id="layer1"><g style="font-style:normal;font-variant:normal;font-weight:400;font-stretch:condensed;font-size:125px;line-height:125%;font-family:'Rockwell Condensed';-inkscape-font-specification:'Rockwell Condensed, Condensed';letter-spacing:0;word-spacing:0;fill:none;fill-opacity:1;stroke:none;stroke-width:1px;stroke-linecap:butt;stroke-linejoin:miter;stroke-opacity:1" id="text4370"><path style="fill:none" id="path4375" d="m 228.14069,484.57062 q 3.11279,0 5.24902,2.13623 2.13623,2.13623 2.13623,5.24902 0,3.05176 -2.13623,5.24903 -2.13623,2.13623 -5.24902,2.13623 -3.05176,0 -5.24903,-2.13623 -2.13623,-2.19727 -2.13623,-5.24903 0,-3.11279 2.13623,-5.24902 2.19727,-2.13623 5.24903,-2.13623 z m -5.3711,82.88574 0,-42.90771 -4.63867,0 0,-10.62012 16.17432,0 0,53.52783 3.60107,0 0,10.62012 -19.77539,0 0,-10.62012 4.63867,0 z"/><path style="fill:none" id="path4377" d="m 245.77985,578.07648 0,-15.13672 12.57324,0 0,15.13672 -12.57324,0 z"/><path style="fill:none" id="path4379" d="m 266.77594,578.07648 0,-15.13672 12.57324,0 0,15.13672 -12.57324,0 z"/><path style="fill:none" id="path4381" d="m 286.73444,578.07648 0,-10.62012 4.76074,0 0,-42.90771 -5.00488,0 0,-10.62012 16.47949,0 0,5.12695 0.30517,0 q 3.96729,-5.85937 9.70459,-5.85937 5.06592,0 7.93457,4.21142 2.92969,4.15039 2.92969,11.65772 l 0,38.39111 4.76074,0 0,10.62012 -16.23535,0 0,-47.24121 q 0,-3.90625 -0.79346,-5.43213 -0.73242,-1.58692 -2.80761,-1.58692 -2.31934,0 -4.08936,2.0752 -1.70898,2.07519 -1.70898,2.56348 l 0,39.00146 4.76074,0 0,10.62012 -20.99609,0 z"/></g></g></svg>