<svg xmlns="http://www.w3.org/2000/svg" xmlns:svg="http://www.w3.org/2000/svg" id="svg2" width="210mm" height="297mm" version="1.1" viewBox="0 0 744.094 1052.362"><metadata id="metadata7"/><g id="layer1"><g id="text4348" style="font-style:normal;font-variant:normal;font-weight:400;font-stretch:condensed;font-size:125px;line-height:125%;font-family:'Rockwell Condensed';-inkscape-font-specification:'Rockwell Condensed, Condensed';letter-spacing:0;word-spacing:0;fill:none;fill-opacity:1;stroke:none;stroke-width:1px;stroke-linecap:butt;stroke-linejoin:miter;stroke-opacity:1"><path id="path4353" d="m 197.97084,441.31937 0,-112.36573 19.104,0 0,7.75147 -7.62939,0 0,96.86279 7.62939,0 0,7.75147 -19.104,0 z" style="fill:none"/><path id="path4355" d="m 270.54164,328.95364 0,33.63037 -9.70459,0 0,-23.92578 -7.75146,0 0,71.167 7.26318,0 0,11.10839 -27.52686,0 0,-11.10839 7.26319,0 0,-71.167 -7.75147,0 0,23.92578 -9.76562,0 0,-33.63037 47.97363,0 z" style="fill:none"/><path id="path4357" d="m 295.13881,328.95364 0,112.36573 -19.104,0 0,-7.75147 7.62939,0 0,-96.86279 -7.62939,0 0,-7.75147 19.104,0 z" style="fill:none"/></g></g></svg>