<svg xmlns="http://www.w3.org/2000/svg" xmlns:svg="http://www.w3.org/2000/svg" id="svg2" width="184" height="128" version="1.1"><metadata id="metadata7"/><g id="layer1" transform="translate(0,-924.36218)"><g id="text3773" style="font-size:128px;font-style:normal;font-variant:normal;font-weight:400;font-stretch:normal;line-height:125%;letter-spacing:0;word-spacing:0;fill:#fff;fill-opacity:1;stroke:none;font-family:DejaVu Serif;-inkscape-font-specification:DejaVu Serif"><path id="path2987" d="m 106.33594,975.39343 -22.031253,0 -6.5625,26.09377 22.265623,0 6.32813,-26.09377 m -11.015628,-44.45312 -7.96875,32.42187 22.031248,0 8.04688,-32.42187 13.4375,0 -8.20313,32.42187 24.0625,0 0,12.03125 -27.10937,0 -6.40625,26.09377 24.53125,0 0,11.9531 -27.5,0 -8.04688,32.3438 -13.437498,0 8.203125,-32.3438 -22.109375,0 -8.125,32.3438 -13.28125,0 7.96875,-32.3438 -24.140625,0 0,-11.9531 27.1875,0 6.40625,-26.09377 -24.6875,0 0,-12.03125 27.734375,0 8.125,-32.42187 13.28125,0" style="font-size:160px;fill:#fff;-inkscape-font-specification:DejaVu Serif"/></g></g></svg>